<?xml version="1.0" encoding="iso-8859-1"?>
<!-- Uploaded to: SVG Repo, www.svgrepo.com, Generator: SVG Repo Mixer Tools -->
<!DOCTYPE svg PUBLIC "-//W3C//DTD SVG 1.1//EN" "http://www.w3.org/Graphics/SVG/1.1/DTD/svg11.dtd">
<svg fill="#000000" version="1.1" id="Capa_1" xmlns="http://www.w3.org/2000/svg" xmlns:xlink="http://www.w3.org/1999/xlink" 
	 width="800px" height="800px" viewBox="0 0 171.471 171.471"
	 xml:space="preserve">
<g>
	<path d="M146.332,25.114C130.141,8.923,108.61,0,85.706,0c-3.368,0-6.692,0.255-9.983,0.63c-0.262,0.006-0.5,0.043-0.743,0.112
		c-18.837,2.339-36.27,10.742-49.9,24.372C11.156,39.037,3.118,56.61,0.792,74.78c-0.143,0.387-0.198,0.792-0.173,1.215
		c-2.85,25.072,5.267,51.171,24.46,70.363c16.194,16.197,37.722,25.112,60.627,25.112c22.904,0,44.436-8.928,60.626-25.112
		C179.767,112.941,179.767,58.55,146.332,25.114z M63.364,162.032c-9.173-2.667-17.747-7.039-25.447-12.854
		c24.28-7.855,48.723-23.212,69.34-43.823c19.645-19.649,34.63-42.972,42.765-66.177c5.347,7.38,9.359,15.43,11.855,23.867
		c-0.231,0.319-0.408,0.679-0.512,1.081c-5.76,23.674-17.908,45.292-35.116,62.505c-17.08,17.067-38.514,29.167-61.987,34.981
		C63.93,161.703,63.644,161.867,63.364,162.032z M109.261,9.788c-5.279,22.368-18.072,44.621-36.307,62.852
		C54.608,90.984,32.23,103.808,9.74,109.032C6.692,99.027,5.624,88.529,6.604,78.19c16.529-4.859,31.956-14.072,44.713-26.832
		C64.08,38.596,73.295,23.15,78.155,6.609c2.493-0.237,5.011-0.368,7.551-0.368C93.819,6.241,101.729,7.462,109.261,9.788z
		 M29.493,29.523C41.06,17.957,55.582,10.437,71.338,7.574c-4.75,14.517-13.107,28.053-24.43,39.37
		C35.591,58.261,22.074,66.618,7.575,71.368C10.382,56.029,17.659,41.357,29.493,29.523z M11.804,114.938
		c23.389-5.584,46.576-18.9,65.559-37.884c18.855-18.855,32.154-41.899,37.793-65.15c9.906,3.945,19.01,9.87,26.773,17.631
		c1.242,1.248,2.363,2.582,3.508,3.891c-7.478,23.538-22.549,47.478-42.594,67.52c-20.999,20.996-46.028,36.401-70.589,43.531
		c-0.922-0.84-1.881-1.619-2.768-2.502C21.55,134.016,15.677,124.791,11.804,114.938z M141.929,141.962
		c-15.016,15.01-34.982,23.291-56.224,23.291c-3.225,0-6.397-0.255-9.554-0.64c20.505-6.795,39.193-18.255,54.513-33.575
		c15.497-15.503,27.042-34.428,33.813-55.18C167.413,99.375,159.935,123.944,141.929,141.962z"/>
</g>
</svg>